<svg width="140" height="140" viewBox="0 0 140 140" fill="none" xmlns="http://www.w3.org/2000/svg">
<path d="M135.787 135.787C130.17 141.404 121.063 141.404 115.447 135.787L74.9354 95.2762L95.2757 74.9358L135.787 115.447C141.404 121.064 141.404 130.17 135.787 135.787Z" fill="#C88D65"/>
<path d="M139.121 130.557C138.363 132.658 137.096 134.607 135.327 136.229C129.627 141.457 120.758 141.099 115.288 135.629L74.9354 95.2762L83.5026 86.709L124.014 127.22C128.099 131.306 134.032 132.423 139.121 130.557Z" fill="#A77453"/>
<path d="M56.427 112.85C87.5897 112.85 112.852 87.5877 112.852 56.425C112.852 25.2623 87.5897 0 56.427 0C25.2643 0 0.00201416 25.2623 0.00201416 56.425C0.00201416 87.5877 25.2643 112.85 56.427 112.85Z" fill="#A8A8A8"/>
<path d="M62.238 112.553C60.2837 112.758 58.2942 112.858 56.282 112.853C24.8718 112.774 -0.564214 86.7798 0.00996053 55.3745C0.571005 24.7022 25.615 0.00537109 56.4267 0.00537109C58.3897 0.00537109 60.3305 0.105216 62.238 0.304904C33.8031 3.21051 11.6174 27.2317 11.6174 56.4262C11.6174 85.6265 33.8031 109.648 62.238 112.553Z" fill="#7E7D7D"/>
<path d="M56.4255 99.143C80.0181 99.143 99.1436 80.0175 99.1436 56.4249C99.1436 32.8323 80.0181 13.7068 56.4255 13.7068C32.8329 13.7068 13.7074 32.8323 13.7074 56.4249C13.7074 80.0175 32.8329 99.143 56.4255 99.143Z" fill="#F8F6F9"/>
<path d="M62.5379 98.7049C60.5435 98.9955 58.4977 99.1437 56.4195 99.1437C32.8302 99.1437 13.7072 80.0206 13.7072 56.4248C13.7072 32.8355 32.8302 13.7124 56.4195 13.7124C58.4977 13.7124 60.5435 13.8609 62.5379 14.1512C41.84 17.1137 25.9374 34.9136 25.9374 56.4248C25.9374 77.9428 41.84 95.7427 62.5379 98.7049Z" fill="#EDEDED"/>
<path d="M81.9217 38.7962C83.0884 36.4448 82.1277 33.595 79.7763 32.4283L72.4187 28.7838C70.0673 27.6172 67.2175 28.5779 66.0508 30.9293L51.4913 60.3049L44.4012 48.4469C43.054 46.1932 40.1391 45.4598 37.8853 46.807L30.8385 51.0185C28.5883 52.3657 27.8514 55.2807 29.1986 57.5344L43.1694 80.9035C44.0615 82.3951 45.6978 83.2836 47.4316 83.2152L57.3353 82.8251C59.0726 82.7565 60.6329 81.7452 61.4024 80.1884L81.9217 38.7962Z" fill="#A3CA59"/>
<path d="M54.4533 65.2585L71.4679 30.9295C71.8473 30.1647 72.4067 29.5503 73.067 29.105L72.419 28.7838C70.0676 27.6172 67.2178 28.5779 66.0511 30.9293L51.4916 60.3049L54.4533 65.2585Z" fill="#94B25A"/>
<path d="M48.5862 80.9039L34.6154 57.5349C33.2682 55.2811 34.0051 52.3662 36.2553 51.019L43.0193 46.9765C41.5353 45.9537 39.5346 45.8216 37.8853 46.8075L30.8385 51.019C28.5883 52.3662 27.8514 55.2811 29.1986 57.5349L43.1694 80.9039C44.0615 82.3956 45.6978 83.2841 47.4316 83.2157L51.445 83.0576C50.2663 82.7433 49.2315 81.9825 48.5862 80.9039Z" fill="#94B25A"/>
</svg>
