<svg width="50" height="50" viewBox="0 0 50 50" fill="none" xmlns="http://www.w3.org/2000/svg">
<path d="M44.9062 17.0165L26.1562 4.5165C25.4562 4.04984 24.5458 4.04984 23.8458 4.5165L5.09582 17.0165C4.51457 17.404 4.16666 18.054 4.16666 18.7498V41.6665C4.16666 43.9644 6.03541 45.8332 8.33332 45.8332H41.6667C43.9646 45.8332 45.8333 43.9644 45.8333 41.6665V18.7498C45.8333 18.054 45.4854 17.404 44.9062 17.0165ZM25 8.754L39.9937 18.7498L25 28.7457L10.0062 18.7498L25 8.754ZM8.33332 41.6665V22.6436L23.8437 32.9832C24.1937 33.2165 24.5979 33.3332 25 33.3332C25.4021 33.3332 25.8062 33.2165 26.1562 32.9832L41.6667 22.6436L41.6604 41.6665H8.33332Z" fill="white"/>
</svg>
