<svg width="132" height="132" viewBox="0 0 132 132" fill="none" xmlns="http://www.w3.org/2000/svg">
<g clip-path="url(#clip0)">
<path d="M15.3174 66.4505C25.6792 22.5256 104.969 21.174 116.683 66.4505C105.645 110.375 27.4812 111.276 15.3174 66.4505Z" fill="#D6D9DB"/>
<path d="M94.6 66C94.6 81.7953 81.7953 94.6 66 94.6C50.2047 94.6 37.4 81.7953 37.4 66C37.4 50.2047 50.2047 37.4 66 37.4C81.7953 37.4 94.6 50.2047 94.6 66Z" fill="#4398D1"/>
<path d="M80.3483 41.2876C85.8193 52.2146 84.3004 65.3437 76.479 74.7323C68.6576 84.121 56.0194 87.9871 44.2836 84.5808C51.671 93.2293 63.482 96.6743 74.3596 93.355C85.2382 90.0357 93.1122 80.5815 94.412 69.2828C95.7118 57.9842 90.1893 46.9896 80.3483 41.2876Z" fill="#368EC9"/>
<path d="M77 66C77 72.0747 72.0747 77 66 77C59.9253 77 55 72.0747 55 66C55 59.9253 59.9253 55 66 55C72.0747 55 77 59.9253 77 66Z" fill="#126099"/>
<path d="M4.4 28.6H0V2.2C0 0.985058 0.985058 0 2.2 0H28.6V4.4H4.4V28.6Z" fill="#C11C3A"/>
<path d="M132 28.6H127.6V4.4H103.4V0H129.8C131.015 0 132 0.985058 132 2.2V28.6Z" fill="#C11C3A"/>
<path d="M129.8 132H103.4V127.6H127.6V103.4H132V129.8C132 131.015 131.015 132 129.8 132Z" fill="#C11C3A"/>
<path d="M28.6 132H2.2C0.985058 132 0 131.015 0 129.8V103.4H4.4V127.6H28.6V132Z" fill="#C11C3A"/>
<path d="M132 63.8H125.345C124.157 32.7454 99.2546 7.84287 68.2 6.65479V0H63.8V6.65479C32.7454 7.84287 7.84287 32.7454 6.65479 63.8H0V68.2H6.65479C7.84287 99.2546 32.7454 124.157 63.8 125.345V132H68.2V125.345C99.2546 124.157 124.157 99.2546 125.345 68.2H132V63.8ZM68.2 120.945V109.56H63.8V120.947C35.1721 119.766 12.2354 96.8279 11.0548 68.2H22.4404V63.8H11.0548C12.2364 35.1731 35.1731 12.2364 63.8 11.0548V22.4404H68.2V11.0548C96.8269 12.2364 119.764 35.1731 120.945 63.8H109.56V68.2H120.947C119.766 96.8279 96.8279 119.765 68.2 120.945Z" fill="#484848"/>
</g>
<defs>
<clipPath id="clip0">
<rect width="132" height="132" fill="white"/>
</clipPath>
</defs>
</svg>
