<svg width="140" height="140" viewBox="0 0 140 140" fill="none" xmlns="http://www.w3.org/2000/svg">
<g clip-path="url(#clip0)">
<path d="M58.3019 132.583C58.3019 136.565 61.5285 139.794 65.5106 139.794H75.1222C79.1032 139.794 82.3309 136.565 82.3309 132.583V118.163H58.3019V132.583Z" fill="#DDDAEC"/>
<path d="M46.9785 92.1016C44.8772 90.7473 42.8955 89.2123 41.0581 87.5165C39.4894 93.5497 33.5608 97.3755 27.4186 96.3193C21.2753 95.2631 16.9646 89.6782 17.4984 83.4666C18.0323 77.255 23.2335 72.488 29.4672 72.4974C29.8344 72.4974 30.1876 72.5737 30.5384 72.6053C28.261 67.2504 27.0866 61.4918 27.0877 55.6733H24.029L22.3688 63.5725C22.2033 64.36 21.6554 65.0125 20.9092 65.3105C20.1618 65.6098 19.3159 65.5147 18.6541 65.0582L12.0145 60.4802L4.80579 67.6905L9.37107 74.3305C9.82747 74.9935 9.92251 75.8397 9.62332 76.586C9.32531 77.3336 8.67296 77.8816 7.88685 78.0459L0 79.7077V89.3214L7.89624 90.982C8.68234 91.1475 9.33469 91.6955 9.63388 92.4419C9.9319 93.1883 9.83686 94.0356 9.38045 94.6975L4.80579 101.339L12.0145 108.549L18.6541 103.981C19.3159 103.525 20.163 103.429 20.9104 103.728C21.6578 104.026 22.2057 104.68 22.3711 105.467L24.029 113.356H33.6406L35.2984 105.455C35.4639 104.667 36.0118 104.014 36.7592 103.716C37.5066 103.417 38.3537 103.512 39.0154 103.97L45.655 108.549L53.1981 101.004C52.4073 97.3203 50.1652 94.1107 46.9785 92.1016Z" fill="#7E7D7D"/>
<path d="M113.569 55.6732C113.566 34.9307 98.8449 17.108 78.4801 13.193C58.1154 9.27803 37.8374 20.3704 30.1477 39.6343C22.4579 58.8981 29.5188 80.9104 46.9785 92.1014C50.9794 94.5823 53.4375 98.935 53.4961 103.643V113.356C53.4961 117.337 56.7227 120.566 60.7048 120.566H79.928C83.909 120.566 87.1367 117.337 87.1367 113.356V103.843C87.1977 99.023 89.705 94.5659 93.7927 92.0122C106.129 84.0462 113.577 70.3602 113.569 55.6732Z" fill="#FFCB45"/>
<path d="M128.449 30.2472L136.004 24.5801L127.354 13.043L119.799 18.71C118.244 19.8754 116.14 19.9892 114.468 18.9987C112.797 18.0083 111.886 16.1083 112.159 14.1848L113.493 4.83748L99.2204 2.79785L97.8864 12.144C97.613 14.0698 96.2062 15.64 94.3231 16.1224C92.44 16.6059 90.4513 15.9064 89.285 14.3503L83.6204 6.79379L72.0869 15.4464L77.7504 23.0029C78.9155 24.559 79.0293 26.662 78.039 28.3343C77.0488 30.0066 75.1492 30.9173 73.2262 30.6439L63.8809 29.3096L61.8406 43.5858L71.1882 44.9201C73.1124 45.1947 74.6822 46.6018 75.1645 48.4854C75.6467 50.3689 74.9474 52.3581 73.3916 53.5246L65.8391 59.1917L74.4898 70.7277L82.0423 65.063C83.5969 63.8965 85.7018 63.7815 87.3749 64.7719C89.0468 65.7624 89.9585 67.6636 89.6839 69.5882L88.3382 78.9332L102.611 80.974L103.957 71.6243C104.232 69.6997 105.638 68.1306 107.521 67.6483C109.405 67.1648 111.393 67.8654 112.558 69.4204L118.225 76.9745L129.759 68.3219L124.091 60.7678C122.924 59.2128 122.809 57.1075 123.8 55.434C124.79 53.7617 126.691 52.8498 128.615 53.1256L137.96 54.4611L140 40.1849L130.655 38.8494C128.732 38.5736 127.163 37.1677 126.68 35.2841C126.198 33.4017 126.896 31.4137 128.449 30.2472ZM100.922 58.7082C91.6316 58.7082 84.1014 51.1763 84.1014 41.8842C84.1014 32.5932 91.6316 25.0601 100.922 25.0601C110.212 25.0601 117.742 32.5932 117.742 41.8842C117.742 51.1763 110.212 58.7082 100.922 58.7082Z" fill="#A8A8A8"/>
<path d="M58.3019 125.373H82.3309V130.18H58.3019V125.373Z" fill="#9E9E9E"/>
<path d="M67.9135 106.146H72.7193V113.356H67.9135V106.146Z" fill="#FFB53D"/>
<path d="M72.7193 101.339H67.9135C67.9112 94.9839 63.9936 89.2875 58.0614 87.0131C46.2358 82.3882 38.0204 71.4976 36.8213 58.8538C35.6222 46.2099 41.6424 33.9686 52.3874 27.2019L54.9369 31.2683C45.7243 37.0668 40.5606 47.5607 41.5884 58.4008C42.615 69.2397 49.6571 78.5765 59.7955 82.5407C67.5838 85.5204 72.7252 92.9982 72.7193 101.339Z" fill="#FFB53D"/>
<path d="M118.374 89.3215H130.389C131.716 89.3215 132.792 90.3965 132.792 91.725C132.792 93.0523 131.716 94.1284 130.389 94.1284H118.374C117.047 94.1284 115.971 93.0523 115.971 91.725C115.971 90.3965 117.047 89.3215 118.374 89.3215Z" fill="#FFB53D"/>
<path d="M113.569 103.743C114.418 102.723 115.933 102.585 116.952 103.435L127.679 112.374C128.698 113.223 128.837 114.738 127.987 115.758C127.137 116.778 125.622 116.916 124.602 116.067L113.876 107.128C112.856 106.278 112.719 104.763 113.569 103.743Z" fill="#FFB53D"/>
<path d="M103.957 108.549C105.284 108.549 106.36 109.624 106.36 110.953V122.97C106.36 124.297 105.284 125.373 103.957 125.373C102.63 125.373 101.554 124.297 101.554 122.97V110.953C101.554 109.624 102.63 108.549 103.957 108.549Z" fill="#FFB53D"/>
<path d="M2.38177 40.7388L16.9423 37.1008C18.2306 36.7792 19.5341 37.562 19.8556 38.8493C20.1771 40.1367 19.3945 41.4405 18.1062 41.7621L3.54568 45.4001C2.2574 45.7217 0.95388 44.9389 0.632398 43.6515C0.310917 42.3641 1.0935 41.0603 2.38177 40.7388Z" fill="#FFB53D"/>
<path d="M5.43702 14.8162C6.20787 13.7365 7.70851 13.4877 8.78793 14.2588L21.6965 23.4817C22.7771 24.2527 23.027 25.7537 22.2561 26.8334C21.4853 27.913 19.9846 28.163 18.9052 27.3908L5.99668 18.1679C4.91608 17.3968 4.66616 15.8959 5.43702 14.8162Z" fill="#FFB53D"/>
<path d="M26.9575 0.392065C28.2434 0.0634706 29.5516 0.839188 29.8802 2.1254L33.6042 16.695C33.9327 17.9813 33.1572 19.2909 31.8712 19.6195C30.5853 19.9481 29.2771 19.1712 28.9486 17.8862L25.2246 3.31655C24.896 2.03034 25.6716 0.720659 26.9575 0.392065Z" fill="#FFB53D"/>
</g>
<defs>
<clipPath id="clip0">
<rect width="140" height="140" fill="white"/>
</clipPath>
</defs>
</svg>
