<svg width="50" height="50" viewBox="0 0 50 50" fill="none" xmlns="http://www.w3.org/2000/svg">
<path d="M24.9979 15.3687C19.6771 15.3687 15.3667 19.6812 15.3667 24.9999C15.3667 30.3207 19.6771 34.6332 24.9979 34.6332C30.3146 34.6332 34.6292 30.3207 34.6292 24.9999C34.6292 19.6812 30.3146 15.3687 24.9979 15.3687ZM24.9979 31.2582C21.5417 31.2582 18.7396 28.4562 18.7396 25.002C18.7396 21.5457 21.5417 18.7457 24.9979 18.7457C28.4542 18.7457 31.2521 21.5457 31.2521 25.002C31.2521 28.4562 28.4542 31.2582 24.9979 31.2582Z" fill="white"/>
<path d="M35.0125 17.2602C36.2528 17.2602 37.2583 16.2547 37.2583 15.0144C37.2583 13.774 36.2528 12.7686 35.0125 12.7686C33.7722 12.7686 32.7667 13.774 32.7667 15.0144C32.7667 16.2547 33.7722 17.2602 35.0125 17.2602Z" fill="white"/>
<path d="M42.7771 12.7311C41.8 10.2123 39.8104 8.22067 37.2917 7.24775C35.8354 6.69984 34.2958 6.40609 32.7375 6.37275C30.7312 6.28525 30.0958 6.26025 25.0083 6.26025C19.9208 6.26025 19.2687 6.26025 17.2792 6.37275C15.725 6.404 14.1854 6.69775 12.7292 7.24775C10.2083 8.22067 8.21875 10.2123 7.24375 12.7311C6.69583 14.1894 6.40208 15.7269 6.37083 17.2853C6.28125 19.2894 6.25417 19.9248 6.25417 25.0144C6.25417 30.1019 6.25417 30.7498 6.37083 32.7436C6.40208 34.3019 6.69583 35.8394 7.24375 37.2998C8.22083 39.8165 10.2104 41.8082 12.7312 42.7832C14.1812 43.3498 15.7208 43.6707 17.2833 43.7207C19.2896 43.8082 19.925 43.8353 25.0125 43.8353C30.1 43.8353 30.7521 43.8353 32.7417 43.7207C34.2979 43.6894 35.8375 43.3936 37.2958 42.8478C39.8146 41.8707 41.8042 39.8811 42.7812 37.3623C43.3292 35.904 43.6229 34.3665 43.6542 32.8082C43.7437 30.804 43.7708 30.1686 43.7708 25.079C43.7708 19.9894 43.7708 19.3436 43.6542 17.3498C43.6271 15.7707 43.3354 14.2061 42.7771 12.7311ZM40.2396 32.5894C40.225 33.7894 40.0083 34.979 39.5917 36.1061C38.9562 37.7457 37.6625 39.0415 36.025 39.6707C34.9104 40.0853 33.7354 40.3019 32.5458 40.3186C30.5667 40.4103 30.0083 40.4332 24.9333 40.4332C19.8542 40.4332 19.3354 40.4332 17.3187 40.3186C16.1333 40.304 14.9542 40.0853 13.8417 39.6707C12.1979 39.0436 10.8958 37.7478 10.2604 36.1061C9.85208 34.9936 9.63125 33.8165 9.6125 32.629C9.52291 30.6498 9.50208 30.0915 9.50208 25.0165C9.50208 19.9394 9.50208 19.4207 9.6125 17.4019C9.62708 16.2019 9.84375 15.0144 10.2604 13.8873C10.8958 12.2436 12.1979 10.9498 13.8417 10.3207C14.9542 9.90817 16.1333 9.68942 17.3187 9.67275C19.3 9.58317 19.8562 9.55817 24.9333 9.55817C30.0104 9.55817 30.5312 9.55817 32.5458 9.67275C33.7354 9.68734 34.9104 9.90609 36.025 10.3207C37.6625 10.9519 38.9562 12.2478 39.5917 13.8873C40 14.9998 40.2208 16.1769 40.2396 17.3644C40.3292 19.3457 40.3521 19.9019 40.3521 24.979C40.3521 30.054 40.3521 30.5998 40.2625 32.5915H40.2396V32.5894Z" fill="white"/>
</svg>
