<svg width="38" height="38" viewBox="0 0 38 38" fill="none" xmlns="http://www.w3.org/2000/svg">
<g clip-path="url(#clip0)">
<path d="M11.8756 31.3945H6.68027V14.6211H11.8756V31.3945ZM12.394 9.27705C12.394 7.59756 11.0313 6.23438 9.35272 6.23438C7.66772 6.23438 6.30859 7.59756 6.30859 9.27705C6.30859 10.9571 7.66772 12.3203 9.35272 12.3203C11.0313 12.3203 12.394 10.9571 12.394 9.27705ZM31.3203 22.1665C31.3203 17.6638 30.3691 14.3242 25.1091 14.3242C22.5816 14.3242 20.885 15.5883 20.1924 16.9027H20.1875V14.6211H15.1406V31.3945H20.1875V23.0664C20.1875 20.8853 20.7427 18.7724 23.4462 18.7724C26.1128 18.7724 26.1992 21.2666 26.1992 23.205V31.3945H31.3203V22.1665ZM38 33.5469V4.45312C38 1.99753 36.0025 0 33.5469 0H4.45312C1.99753 0 0 1.99753 0 4.45312V33.5469C0 36.0025 1.99753 38 4.45312 38H33.5469C36.0025 38 38 36.0025 38 33.5469ZM33.5469 2.96875C34.3653 2.96875 35.0312 3.63469 35.0312 4.45312V33.5469C35.0312 34.3653 34.3653 35.0312 33.5469 35.0312H4.45312C3.63469 35.0312 2.96875 34.3653 2.96875 33.5469V4.45312C2.96875 3.63469 3.63469 2.96875 4.45312 2.96875H33.5469Z" fill="white"/>
</g>
<defs>
<clipPath id="clip0">
<rect width="38" height="38" fill="white"/>
</clipPath>
</defs>
</svg>
