<svg width="120" height="120" viewBox="0 0 120 120" fill="none" xmlns="http://www.w3.org/2000/svg">
<path d="M13.5786 65.793L9.2338 61.1792C-3.15592 47.5369 -2.34602 26.4873 11.0553 13.8374C24.4567 1.1874 45.5179 1.59207 58.4235 14.7475L59.8717 16.2868L78.6207 22.7585L109.382 62.5902C111.269 64.5909 113.224 66.3578 113.139 70.1771C113.033 73.5929 110.883 76.6095 107.689 77.8251C104.495 79.0406 100.883 78.2168 98.5324 75.7365C100.649 77.9262 101.425 81.085 100.564 84.0063C99.703 86.9277 97.3377 89.1605 94.3716 89.852C91.4055 90.5435 88.2967 89.5869 86.2324 87.3475C89.3223 90.6082 89.3208 95.7165 86.2289 98.9753C83.1369 102.234 78.0357 102.504 74.6172 99.5895L13.5786 65.793Z" fill="#A56A43"/>
<path d="M40.1379 60.3517C40.1416 62.6778 39.1831 64.9018 37.4897 66.4965L26.731 76.6551C24.2668 78.959 20.6716 79.5837 17.5746 78.2462C14.4776 76.9086 12.4675 73.8631 12.4552 70.4896C12.4514 68.1593 13.4185 65.9327 15.1241 64.3448L25.8828 54.1862C28.3421 51.8764 31.9384 51.2483 35.0351 52.5876C38.1317 53.9269 40.1369 56.9778 40.1379 60.3517Z" fill="#EDBA86"/>
<path d="M40.0345 61.6344C39.759 63.4958 38.8621 65.2093 37.4896 66.4965L26.731 76.6551C24.8971 78.3802 22.3907 79.2 19.8918 78.8921C17.3928 78.5843 15.1604 77.1806 13.8 75.062C14.084 73.2048 14.9882 71.4984 16.3655 70.2206L27.1241 60.062C28.9519 58.3362 31.4531 57.5135 33.9484 57.8174C36.4438 58.1213 38.6744 59.5203 40.0345 61.6344Z" fill="#F3C99B"/>
<path d="M51.7448 72.6413C51.7484 74.9674 50.7899 77.1914 49.0966 78.7862L38.3379 88.9448C35.8764 91.2461 32.2861 91.8723 29.1909 90.54C26.0957 89.2077 24.0826 86.1697 24.0621 82.7999C24.0583 80.4696 25.0254 78.243 26.731 76.6551L37.4897 66.4965C39.9456 64.1873 43.5381 63.5565 46.6337 64.8909C49.7294 66.2254 51.7374 69.2703 51.7448 72.6413Z" fill="#EDBA86"/>
<path d="M50.3379 77.3172C49.6159 78.422 49.7172 78.2006 38.3379 88.9448C36.0492 91.0878 32.765 91.7936 29.7979 90.78C26.8308 89.7664 24.6648 87.1988 24.1655 84.1034C24.8876 83.0006 24.7862 83.2241 36.1655 72.4758C37.7962 70.9331 39.974 70.1031 42.2179 70.1691C44.4617 70.2351 46.5869 71.1916 48.1241 72.8275C49.1711 74.1508 49.9256 75.681 50.3379 77.3172Z" fill="#F3C99B"/>
<path d="M74.9586 97.2413C74.9562 99.5722 73.9991 101.8 72.3103 103.407L61.5517 113.565C58.1455 116.721 52.8321 116.542 49.6465 113.163C46.461 109.785 46.5941 104.47 49.9448 101.255L60.7034 91.0965C63.1594 88.7873 66.7518 88.1565 69.8475 89.4909C72.9432 90.8253 74.9512 93.8703 74.9586 97.2413Z" fill="#EDBA86"/>
<path d="M74.8759 98.4C74.6132 100.312 73.7086 102.077 72.3104 103.407L61.5517 113.565C59.7897 115.217 57.4073 116.039 55.0018 115.826C52.5963 115.612 50.3957 114.384 48.9518 112.448C49.2094 110.536 50.1236 108.774 51.538 107.462L62.2966 97.3034C64.0575 95.6619 66.4319 94.8441 68.8302 95.0531C71.2285 95.2622 73.4256 96.4785 74.8759 98.4Z" fill="#F3C99B"/>
<path d="M109.382 62.5903L77.3959 28.6965C76.6423 27.8975 75.6019 27.4309 74.5041 27.3995C73.4062 27.368 72.3409 27.7743 71.5428 28.5289L56.1 43.1027C49.6097 49.2434 39.2648 44.6255 39.4324 38.1207C39.4967 36.4439 40.2113 34.8581 41.4248 33.6993L62.9421 13.3758C76.5323 0.551764 97.9453 1.17285 110.769 14.7631C123.593 28.3533 122.972 49.7663 109.382 62.5903Z" fill="#F3C99B"/>
<path d="M113.234 58.262C112.08 59.8151 110.791 61.2634 109.382 62.5903L77.3959 28.6965C76.6423 27.8975 75.6019 27.4309 74.504 27.3994C73.4062 27.368 72.3408 27.7743 71.5427 28.5289L60.2896 39.1448C60.0496 38.8738 58.4028 40.5931 75.5586 24.3724C77.2281 22.8102 79.8469 22.8935 81.4138 24.5586L113.234 58.262Z" fill="#F9C795"/>
<path d="M86.2324 89.4165C85.6623 89.4167 85.1173 89.1816 84.7262 88.7668L57.1593 59.551C56.6519 59.0132 56.4699 58.2456 56.6819 57.5373C56.8938 56.8289 57.4676 56.2875 58.187 56.1169C58.9065 55.9463 59.6622 56.1725 60.1697 56.7103L87.7366 85.9261C88.3043 86.5266 88.4602 87.4074 88.1332 88.1663C87.8061 88.9252 87.0588 89.4167 86.2324 89.4165Z" fill="#805333"/>
<path d="M98.5324 77.8055C97.9626 77.8062 97.4177 77.572 97.0262 77.1579L69.4573 47.942C68.6901 47.1084 68.7361 45.8129 69.5603 45.0357C70.3845 44.2585 71.6804 44.2887 72.4676 45.1034L100.039 74.3172C100.605 74.9181 100.76 75.7984 100.433 76.5567C100.105 77.3149 99.3583 77.8058 98.5324 77.8055Z" fill="#805333"/>
<path d="M63.3517 84.931C63.3322 87.2583 62.3779 89.48 60.7035 91.0965L49.9448 101.255C46.5386 104.411 41.2252 104.232 38.0397 100.853C34.8541 97.4744 34.9873 92.1597 38.3379 88.9448L49.0966 78.7862C51.5531 76.479 55.1445 75.8494 58.2394 77.1835C61.3342 78.5175 63.3424 81.5609 63.3517 84.931Z" fill="#EDBA86"/>
<path d="M63.269 86.0483C63.0252 87.9776 62.1183 89.7623 60.7035 91.0965L49.9448 101.255C48.1751 102.906 45.7851 103.724 43.375 103.502C40.9649 103.281 38.7637 102.042 37.3242 100.097C37.5635 98.1658 38.4712 96.3798 39.8897 95.0483L50.6483 84.8896C54.0526 81.6973 59.3961 81.8545 62.6069 85.2414C62.8535 85.488 63.0753 85.7582 63.269 86.0483Z" fill="#F3C99B"/>
</svg>
