<svg width="80" height="120" viewBox="0 0 80 120" fill="none" xmlns="http://www.w3.org/2000/svg">
<path d="M68.3116 56.4182V120H60.9055L40.0554 97.9913L40.0012 98.0478V56.4182H68.3116Z" fill="#2BA6CF"/>
<path d="M40.0012 56.4182V98.0478L19.2688 120H11.7944V56.4182H40.0012Z" fill="#2BA6CF"/>
<path d="M72.4538 46.1486L75.0088 60.6381L61.1833 65.6705L53.8267 78.4128L40.053 73.3992V0.0423584L51.2716 9.45717H65.9849L68.54 23.9467L79.8104 33.4063L72.4538 46.1486Z" fill="#FFDA44"/>
<path d="M40.053 0.0423878V73.3993L40.0012 73.3804L26.1733 78.4128L18.8167 65.6705L4.99118 60.6382L7.54622 46.1486L0.189575 33.4063L11.46 23.9468L14.0151 9.4572H28.7284L40.0012 0L40.053 0.0423878Z" fill="#FFDA44"/>
<path d="M55.0724 35.1065L40.053 46.3699V37.5415L50.8336 29.4548L55.0724 35.1065Z" fill="#FFF68E"/>
<path d="M40.053 37.5415V46.3699L33.5841 51.221L24.3671 40.4662L29.7292 35.8695L34.6415 41.5989L40.053 37.5415Z" fill="#FFF68E"/>
</svg>
