<svg width="212" height="212" viewBox="0 0 212 212" fill="none" xmlns="http://www.w3.org/2000/svg">
<g clip-path="url(#clip0)">
<path d="M148.891 41.4062L158.518 28.5703C159.93 26.6884 160.156 24.1701 159.104 22.0662C158.053 19.962 155.902 18.6328 153.549 18.6328H110.141C106.711 18.6328 103.93 21.4137 103.93 24.8438V57.9688C103.93 61.3988 106.711 64.1797 110.141 64.1797H153.549C155.902 64.1797 158.053 62.8505 159.104 60.7463C160.156 58.6424 159.93 56.1241 158.518 54.2422L148.891 41.4062Z" fill="#C11C3A"/>
<path d="M106 89.9894C102.57 89.9894 99.7891 87.2086 99.7891 83.7785V18.6328C99.7891 15.2027 102.57 12.4219 106 12.4219C109.43 12.4219 112.211 15.2027 112.211 18.6328V83.7785C112.211 87.2086 109.43 89.9894 106 89.9894Z" fill="#DDDDDD"/>
<path d="M106 12.4219V89.9894C109.43 89.9894 112.211 87.2086 112.211 83.7785V18.6328C112.211 15.2027 109.43 12.4219 106 12.4219Z" fill="#9B9B9B"/>
<path d="M211.034 190.041L162.891 114.129C161.751 112.333 159.773 111.245 157.646 111.245C155.519 111.245 153.54 112.333 152.401 114.129L137.257 138.007C135.969 140.038 135.969 142.629 137.257 144.66L181.911 196.694C183.05 198.49 185.029 199.578 187.156 199.578H205.789C208.054 199.578 210.14 198.345 211.232 196.36C212.323 194.375 212.248 191.954 211.034 190.041Z" fill="#69A75A"/>
<path d="M74.7433 138.007L59.6002 114.129C58.4611 112.333 56.4819 111.245 54.3553 111.245C52.2282 111.245 50.2494 112.333 49.1103 114.129L0.966028 190.041C-0.247175 191.954 -0.322949 194.375 0.76852 196.36C1.8604 198.345 3.94562 199.578 6.21096 199.578H24.8446C26.9716 199.578 28.9504 198.49 30.0895 196.694L74.7433 144.66C76.031 142.629 76.031 140.038 74.7433 138.007Z" fill="#6FC751"/>
<path d="M137.538 121.91L111.245 80.4519C110.106 78.6557 108.127 77.5676 106 77.5676C103.873 77.5676 101.894 78.6557 100.755 80.4519L74.4613 121.91C72.6779 124.722 73.4294 128.441 76.1647 130.339L89.6118 139.673C91.7604 141.165 94.6129 141.15 96.7461 139.637L106 133.075L115.254 139.637C116.33 140.4 117.588 140.782 118.847 140.782C120.084 140.782 121.323 140.412 122.389 139.673L135.836 130.339C138.57 128.441 139.322 124.722 137.538 121.91Z" fill="#A88260"/>
<path d="M137.538 121.91L111.245 80.4519C110.106 78.6557 108.127 77.5676 106 77.5676V133.075L115.254 139.637C116.33 140.4 117.588 140.782 118.847 140.782C120.084 140.782 121.323 140.412 122.389 139.673L135.836 130.339C138.57 128.441 139.322 124.722 137.538 121.91Z" fill="#986E47"/>
<path d="M137.538 121.91L118.846 134.571L106 125.461L93.1537 134.571L74.4617 121.91L24.8446 199.578H187.155L137.538 121.91Z" fill="#66D278"/>
<path d="M106 199.578H187.155L137.538 121.91L118.846 134.571L106 125.461V199.578Z" fill="#6CB96F"/>
</g>
<defs>
<clipPath id="clip0">
<rect width="212" height="212" fill="white"/>
</clipPath>
</defs>
</svg>
