<svg width="120" height="120" viewBox="0 0 120 120" fill="none" xmlns="http://www.w3.org/2000/svg">
<g clip-path="url(#clip0)">
<path d="M59.7657 116.293C59.2173 116.293 58.6699 116.167 58.1663 115.915C57.5721 115.617 43.4538 108.471 29.1459 95.4319C20.6836 87.7195 13.9261 79.5392 9.06191 71.1173C2.89307 60.4394 -0.234375 49.3524 -0.234375 38.1637C-0.234375 19.1875 15.2033 3.74988 34.1795 3.74988C44.0214 3.74988 53.282 7.93842 59.7657 15.1473C66.2486 7.93842 75.5101 3.74988 85.352 3.74988C104.328 3.74988 119.766 19.1875 119.766 38.1637C119.766 49.3524 116.638 60.4394 110.47 71.1173C105.605 79.5392 98.8479 87.7195 90.3856 95.4319C76.0777 108.471 61.9594 115.617 61.3652 115.915C60.8616 116.167 60.3141 116.293 59.7657 116.293Z" fill="#FF5B5B"/>
<path d="M61.3652 115.915C61.9594 115.617 76.0777 108.471 90.3856 95.4319C98.8479 87.7195 105.605 79.5392 110.47 71.1173C116.638 60.4394 119.766 49.3515 119.766 38.1637C119.766 19.1875 104.328 3.74988 85.352 3.74988C75.5101 3.74988 66.2486 7.93842 59.7657 15.1473V116.293C60.3141 116.293 60.8616 116.167 61.3652 115.915Z" fill="#FF5B5B"/>
<path d="M59.7657 91.985C48.0616 91.985 38.5401 82.4635 38.5401 70.7594C38.5401 66.0444 41.5714 58.212 47.8062 46.8146C52.2309 38.7268 56.5824 31.9601 56.7656 31.6763C57.4229 30.6564 58.5527 30.0403 59.7657 30.0403C60.9788 30.0403 62.1086 30.6564 62.7659 31.6763C62.949 31.9601 67.3005 38.7268 71.7253 46.8146C77.96 58.212 80.9914 66.0444 80.9914 70.7594C80.9914 82.4635 71.4699 91.985 59.7657 91.985Z" fill="#FFB64C"/>
<path d="M80.9914 70.7594C80.9914 66.0444 77.9601 58.212 71.7253 46.8146C67.3006 38.7268 62.949 31.9601 62.7659 31.6763C62.1086 30.6564 60.9788 30.0403 59.7657 30.0403V91.985C71.4699 91.985 80.9914 82.4635 80.9914 70.7594Z" fill="#FFB64C"/>
<path d="M59.7657 91.9849C52.9304 91.9849 47.3686 86.424 47.3686 79.5877C47.3686 74.0891 54.561 62.5003 56.7656 59.0799C57.4229 58.06 58.5527 57.4438 59.7657 57.4438C60.9788 57.4438 62.1086 58.06 62.7659 59.0799C64.9705 62.5003 72.1629 74.0891 72.1629 79.5877C72.1629 86.424 66.602 91.9849 59.7657 91.9849Z" fill="#FFEE6E"/>
<path d="M72.1629 79.5878C72.1629 74.0891 64.9705 62.5003 62.7659 59.0799C62.1086 58.06 60.9788 57.4438 59.7657 57.4438V91.9858C66.602 91.9849 72.1629 86.424 72.1629 79.5878Z" fill="#FFEE6E"/>
</g>
<defs>
<clipPath id="clip0">
<rect width="120" height="120" fill="white"/>
</clipPath>
</defs>
</svg>
