<svg width="140" height="140" viewBox="0 0 140 140" fill="none" xmlns="http://www.w3.org/2000/svg">
<g clip-path="url(#clip0)">
<path d="M123.509 39.3086C123 39.3086 122.491 39.1205 122.094 38.7415C107.995 25.2885 89.4949 17.8794 70 17.8794C68.8674 17.8794 67.9492 16.9615 67.9492 15.8286C67.9492 14.6958 68.8674 13.7778 70 13.7778C90.5542 13.7778 110.06 21.5895 124.925 35.7741C125.745 36.5559 125.775 37.8539 124.993 38.6737C124.59 39.0959 124.05 39.3086 123.509 39.3086Z" fill="#68748F"/>
<path d="M106.036 56.2134V56.2161C114.854 65.0343 120.456 77.0738 120.928 90.4139C120.964 91.439 121.814 92.2473 122.84 92.2473H136.006C137.082 92.2473 137.952 91.36 137.922 90.2842C137.411 72.3009 129.912 56.0676 118.049 44.2012H118.046L106.036 56.2134Z" fill="#A3CA59"/>
<path d="M69.9995 24.3003L67.2651 27.2726V38.4836L69.9995 41.2864C84.0707 41.2864 96.813 46.9903 106.033 56.2134H106.036L118.046 44.2012C105.746 31.9046 88.7602 24.3003 69.9995 24.3003Z" fill="#FFCB45"/>
<path d="M126.612 63.6415L82.1532 77.7069L89.4939 92.9904L128.254 67.0577C130.094 65.8264 128.723 62.9739 126.612 63.6415Z" fill="#737FAA"/>
<path d="M19.0381 111.287H2.05078C0.918203 111.287 0 110.369 0 109.236C0 108.103 0.918203 107.185 2.05078 107.185H19.0381C20.1707 107.185 21.0889 108.103 21.0889 109.236C21.0889 110.369 20.1707 111.287 19.0381 111.287Z" fill="#68748F"/>
<path d="M137.949 107.185H131.506V100.742C131.506 99.6091 130.588 98.6912 129.455 98.6912C128.323 98.6912 127.404 99.6091 127.404 100.742V107.185H120.962C119.829 107.185 118.911 108.103 118.911 109.236C118.911 110.369 119.829 111.287 120.962 111.287H127.404V117.73C127.404 118.862 128.323 119.78 129.455 119.78C130.588 119.78 131.506 118.862 131.506 117.73V111.287H137.949C139.082 111.287 140 110.369 140 109.236C140 108.103 139.082 107.185 137.949 107.185Z" fill="#68748F"/>
<path d="M103.975 92.2473C103.975 101.96 99.9007 110.718 93.3709 116.906C87.2787 122.681 79.0536 126.222 70 126.222C60.9464 126.222 52.7214 122.681 46.6291 116.906C40.0994 110.718 36.0251 101.96 36.0251 92.2473C36.0251 73.4839 51.2366 58.2751 70 58.2751C88.7635 58.2751 103.975 73.4839 103.975 92.2473Z" fill="#789A9E"/>
<path d="M93.3709 111.724V116.906C87.2787 122.681 79.0536 126.222 70 126.222C60.9465 126.222 52.7214 122.681 46.6292 116.906V111.724C46.6292 109.162 48.2589 106.882 50.6843 106.051L59.2019 103.136L63.6262 101.624H76.3739L80.7982 103.136L89.3158 106.051C91.7412 106.882 93.3709 109.162 93.3709 111.724Z" fill="#C4C4C4"/>
<path d="M74.1014 125.976C72.7588 126.14 71.3889 126.222 69.9998 126.222C60.9463 126.222 52.7213 122.681 46.6292 116.906V111.724C46.6292 109.162 48.2588 106.882 50.6842 106.05L63.626 101.624H71.8291L58.8874 106.05C56.462 106.882 54.8323 109.162 54.8323 111.724V116.906C59.9893 121.795 66.6776 125.084 74.1014 125.976Z" fill="#EBEBEB"/>
<path d="M80.7979 103.136C78.4464 106.034 74.8534 107.891 70.8339 107.891H69.1659C65.1464 107.891 61.5534 106.034 59.2018 103.136L63.6261 101.624H76.3737L80.7979 103.136Z" fill="#EBEBEB"/>
<path d="M59.0627 81.7829V95.055C59.0627 100.634 63.5856 105.157 69.1651 105.157H70.835C76.4145 105.157 80.9374 100.634 80.9374 95.055V81.7829C80.9374 80.0742 79.5522 78.6892 77.8437 78.6892H62.1566C60.4479 78.6892 59.0627 80.0744 59.0627 81.7829Z" fill="#FEC9A3"/>
<path d="M72.7343 104.976C72.1191 105.096 71.4847 105.156 70.8339 105.156H69.1659C63.5851 105.156 59.0624 100.634 59.0624 95.0554V81.7828C59.0624 80.0738 60.4488 78.6902 62.1577 78.6902H67.6265C65.9175 78.6902 64.5312 80.0738 64.5312 81.7828V95.0554C64.5312 99.9855 68.0613 104.09 72.7343 104.976Z" fill="#FABD91"/>
<path d="M59.0627 85.2402H63.4478C65.1193 85.2402 66.7167 84.552 67.8649 83.3371L70.8653 80.162L72.8141 83.5608C73.4097 84.5996 74.5157 85.2402 75.7131 85.2402H80.9374V78.4141C80.9374 74.2721 77.5796 70.9143 73.4376 70.9143H66.5625C62.4205 70.9143 59.0627 74.2721 59.0627 78.4141V85.2402Z" fill="#D8ECFE"/>
<path d="M59.0627 85.2402H63.4478C65.1193 85.2402 66.7167 84.552 67.8649 83.3371L70.8653 80.162L72.8141 83.5608C73.4097 84.5996 74.5157 85.2402 75.7131 85.2402H80.9374V78.4141C80.9374 74.2721 77.5796 70.9143 73.4376 70.9143H66.5625C62.4205 70.9143 59.0627 74.2721 59.0627 78.4141V85.2402Z" fill="#454A55"/>
<path d="M66.5628 70.9136H72.0316C67.889 70.9136 64.5312 74.2714 64.5312 78.414V85.1405C64.1785 85.2061 63.8148 85.239 63.4484 85.239H59.0624V78.414C59.0624 74.2714 62.4203 70.9136 66.5628 70.9136Z" fill="#353940"/>
<path d="M69.9998 24.3V41.2861C55.9286 41.2861 43.1863 46.9901 33.9659 56.2132H33.9632L29.735 57.022L22.558 49.8434L21.9537 44.201C34.2531 31.9044 51.2391 24.3 69.9998 24.3Z" fill="#E8594A"/>
<path d="M33.9634 56.2134V56.2161C25.1452 65.0343 19.5433 77.0738 19.0713 90.4139C19.0349 91.439 18.1854 92.2473 17.1597 92.2473H3.99358C2.91759 92.2473 2.04751 91.36 2.07786 90.2842C2.5881 72.3009 10.0875 56.0676 21.9509 44.2012H21.9536L33.9634 56.2134Z" fill="#A8A8A8"/>
</g>
<defs>
<clipPath id="clip0">
<rect width="140" height="140" fill="white"/>
</clipPath>
</defs>
</svg>
