<svg width="140" height="140" viewBox="0 0 140 140" fill="none" xmlns="http://www.w3.org/2000/svg">
<path d="M138.814 137.627V109.35C138.814 106.253 137.302 103.351 134.765 101.574L116.924 89.0826C115.727 88.2451 114.302 87.7966 112.84 87.7966H98.4744L98.7118 128.397C98.7995 132.628 101.564 136.334 105.593 137.627H138.814Z" fill="#FEC9A3"/>
<path d="M124.576 137.627H107.966C102.724 137.627 98.4744 133.377 98.4744 128.136V118.644H115.085L124.576 137.627Z" fill="#FABD91"/>
<path d="M62.8814 16.6102C61.2465 16.6127 59.6305 16.9542 58.1356 17.6116V0H15.4238C7.56002 0 1.18647 6.37355 1.18647 14.2373V56.9491H18.798C16.164 50.9504 18.8905 43.9504 24.8916 41.3167C30.8903 38.6827 37.8903 41.4091 40.524 47.4102C41.86 50.4498 41.86 53.912 40.524 56.9516H58.1356V39.34C64.1342 41.974 71.1342 39.2476 73.768 33.2464C76.4017 27.2453 73.6756 20.2478 67.6744 17.614C66.1653 16.9471 64.5329 16.6078 62.8814 16.6102Z" fill="#A3CA59"/>
<path d="M115.085 14.2373C115.085 6.37355 108.711 0 100.848 0H58.1355V17.6116C64.1342 14.9775 71.1342 17.704 73.768 23.7051C76.402 29.7038 73.6755 36.7038 67.6744 39.3375C64.6349 40.6736 61.1726 40.6736 58.1331 39.3375V56.9491H75.7446C73.1106 62.9478 75.8371 69.9478 81.8382 72.5815C87.8369 75.2156 94.8369 72.4891 97.4706 66.488C98.8066 63.4484 98.8066 59.9862 97.4706 56.9466H115.085V14.2373Z" fill="#E8594A"/>
<path d="M115.085 15.5923C101.521 34.4614 77.0355 45.1796 58.1355 50.9483V56.9494H75.7471C73.1131 62.9481 75.8395 69.9481 81.8407 72.5819C87.8393 75.2159 94.8393 72.4894 97.4731 66.4883C98.8091 63.4488 98.8091 59.9865 97.4731 56.947H115.085V15.5923Z" fill="#D65245"/>
<path d="M53.3898 75.9322C55.0247 75.9346 56.6407 76.2762 58.1356 76.9335V56.949H40.524C43.158 50.9504 40.4316 43.9504 34.4305 41.3166C28.4293 38.6826 21.4318 41.409 18.798 47.4102C17.462 50.4497 17.462 53.912 18.798 56.9515H1.18647V99.6633C1.18647 107.527 7.56002 113.901 15.4238 113.901H58.1356V98.662C52.1369 101.296 45.1369 98.5695 42.5031 92.5684C39.8691 86.5697 42.5956 79.5697 48.5967 76.936C50.1058 76.2691 51.7382 75.9297 53.3898 75.9322Z" fill="#FFCB45"/>
<path d="M1.18643 99.6612C1.18643 107.525 7.55999 113.899 15.4238 113.899H58.1355V98.6599C52.1653 101.289 45.1937 98.5817 42.5646 92.6115C41.9549 91.2257 41.6155 89.7333 41.568 88.2192C28.8468 93.8928 15.1126 96.9468 1.18616 97.2006V99.6612H1.18643Z" fill="#FFB53D"/>
<path d="M121.29 106.542L106.276 66.4407L89.7873 72.6504C94.3835 77.3322 94.3124 84.8542 89.6306 89.448C84.9488 94.042 77.4268 93.9731 72.8331 89.2913C70.4936 86.9067 69.2642 83.6486 69.4493 80.3124L52.9624 86.5222L59.9862 105.289C58.3559 105.197 56.7235 105.446 55.1931 106.02C49.0662 108.398 46.0291 115.291 48.4066 121.418C50.744 127.438 57.4569 130.496 63.5338 128.304C65.0642 127.727 66.4595 126.835 67.6268 125.689L72.9805 140L112.968 124.939C120.338 122.149 124.061 113.92 121.29 106.542Z" fill="#A8A8A8"/>
<path d="M113.547 85.8625C97.1742 110.351 66.4811 118.903 48.504 121.847C51.0265 127.848 57.9362 130.667 63.9371 128.145C65.3111 127.568 66.564 126.733 67.6268 125.689L72.9805 140L112.968 124.939C120.336 122.149 124.057 113.924 121.29 106.549L113.547 85.8625Z" fill="#7E7D7D"/>
<path d="M62.8814 16.6103C61.2465 16.6127 59.6305 16.9542 58.1356 17.6116V14.1685C40.3676 30.5247 16.2947 39.5582 1.18647 43.96V56.9491H18.798C16.164 50.9504 18.8905 43.9504 24.8916 41.3167C30.8903 38.6827 37.8903 41.4091 40.524 47.4102C41.86 50.4498 41.86 53.912 40.524 56.9516H58.1356V39.34C64.1342 41.974 71.1342 39.2476 73.768 33.2465C76.4017 27.2453 73.6756 20.2478 67.6744 17.614C66.1653 16.9471 64.5329 16.6078 62.8814 16.6103Z" fill="#94B25A"/>
<path d="M110.382 106.823C108.111 104.506 104.393 104.468 102.077 106.739C99.7607 109.01 99.7227 112.728 101.994 115.045C102.022 115.073 102.048 115.101 102.077 115.128L110.339 123.39C110.339 131.254 116.713 137.627 124.576 137.627H138.814V135.255L110.382 106.823Z" fill="#FEC9A3"/>
</svg>
