<svg width="200" height="200" viewBox="0 0 200 200" fill="none" xmlns="http://www.w3.org/2000/svg">
<path d="M49.8308 100.003C49.8308 127.842 72.2621 150.538 100 150.975L108.286 100.003L100 49.03C72.2621 49.4667 49.8308 72.1628 49.8308 100.003Z" fill="#345CA0"/>
<path d="M100.814 49.0172C100.542 49.0172 100.271 49.0235 100 49.0274V150.972C100.271 150.977 100.542 150.982 100.814 150.982C128.925 150.982 151.796 128.112 151.796 99.9996C151.796 71.8875 128.925 49.0172 100.814 49.0172Z" fill="#084792"/>
<path d="M22.8895 100C22.8895 57.4809 57.4813 22.8895 100 22.8895L104.312 16.3067L100 11.1707C76.2727 11.1707 53.9656 20.4106 37.1883 37.1883C20.4102 53.9656 11.1707 76.2727 11.1707 100C11.1707 123.727 20.4102 146.034 37.1883 162.812C53.9656 179.59 76.2727 188.829 100 188.829L102.994 182.261L100 177.111C57.4809 177.111 22.8895 142.519 22.8895 100Z" fill="#C11C3A"/>
<path d="M162.812 37.1883C146.034 20.4102 123.727 11.1707 100 11.1707V22.8895C142.519 22.8895 177.111 57.4813 177.111 100C177.111 142.519 142.519 177.111 100 177.111V188.829C123.727 188.829 146.034 179.589 162.812 162.812C179.589 146.034 188.829 123.727 188.829 100C188.829 76.2731 179.589 53.9656 162.812 37.1883Z" fill="#C11C3A"/>
<path d="M164.816 94.1406H200V105.859H164.816V94.1406Z" fill="#98122A"/>
<path d="M0 94.1406H35.1844V105.859H0V94.1406Z" fill="#DA3855"/>
<path d="M200 200H162.789V188.281H188.281V162.789H200V200Z" fill="#3C3C3C"/>
<path d="M37.2109 200H0V162.789H11.7188V188.281H37.2109V200Z" fill="#636363"/>
<path d="M100.814 74.1449C100.541 74.1449 100.271 74.157 100 74.1656L95.8571 100L100 125.834C100.271 125.843 100.541 125.855 100.814 125.855C115.07 125.855 126.669 114.257 126.669 100C126.669 85.7433 115.07 74.1449 100.814 74.1449Z" fill="#A0A0A0"/>
<path d="M94.1406 200H100L102.93 185.807L100 165.267H94.1406V200Z" fill="#DA3855"/>
<path d="M100 165.267H105.859V200H100V165.267Z" fill="#98122A"/>
<path d="M174.698 17.0164L95.8571 95.857L97.5434 102.457L140.56 63.3606L178.841 21.1594L174.698 17.0164Z" fill="#F1F3F8"/>
<path d="M97.5433 102.457L99.2297 109.057L182.984 25.3023L178.841 21.1594L97.5433 102.457Z" fill="#DDE2ED"/>
<path d="M150.016 16.3066V49.9844L158.652 45.8524L161.734 38.2656V16.3066H150.016Z" fill="#6CE0E1"/>
<path d="M74.9582 100C74.9582 113.984 86.1191 125.402 100 125.834V74.1656C86.1191 74.5977 74.9582 86.0164 74.9582 100Z" fill="#DFDFDF"/>
<path d="M150.016 49.9844H183.693V38.2656H161.734L150.016 49.9844Z" fill="#52B9D1"/>
<path d="M11.7188 37.2109H0V0H37.2109V11.7188H11.7188V37.2109Z" fill="#636363"/>
<path d="M94.1406 0V35.1844H100L104.312 17.5922L100 0H94.1406Z" fill="#DA3855"/>
<path d="M100 0H105.859V35.1844H100V0Z" fill="#98122A"/>
<path d="M184.805 0H173.086V26.9141L183.094 23.3367L184.805 15.1953V0Z" fill="#6CE0E1"/>
<path d="M184.805 15.1953L173.086 26.9141V26.9145H200V15.1957H184.805V15.1953Z" fill="#52B9D1"/>
</svg>
